<svg width="45" height="45" viewBox="0 0 45 45" fill="none" xmlns="http://www.w3.org/2000/svg">
<g id="basket-outline">
<path id="Vector" d="M6.0117 16.875C5.53907 16.8745 5.0854 17.0609 4.74955 17.3934C4.41371 17.726 4.22291 18.1778 4.21874 18.6504C4.21682 18.8142 4.24054 18.9773 4.28905 19.1338L8.83299 35.1563C9.0436 35.9047 9.49369 36.5635 10.1143 37.0317C10.735 37.5 11.492 37.752 12.2695 37.749H32.7305C33.5094 37.7497 34.2676 37.4972 34.8906 37.0296C35.5136 36.5619 35.9677 35.9045 36.1846 35.1563L40.7285 19.1338L40.7812 18.6504C40.7771 18.1778 40.5863 17.726 40.2504 17.3934C39.9146 17.0609 39.4609 16.8745 38.9883 16.875H6.0117ZM23.0027 30.9437C22.2722 30.94 21.5591 30.7201 20.9535 30.3116C20.3479 29.903 19.8768 29.3243 19.5998 28.6483C19.3228 27.9724 19.2522 27.2295 19.3969 26.5135C19.5417 25.7975 19.8953 25.1403 20.4131 24.6251C20.931 24.1098 21.5898 23.7595 22.3066 23.6183C23.0233 23.4771 23.7658 23.5514 24.4404 23.8318C25.115 24.1122 25.6914 24.5861 26.0968 25.1938C26.5023 25.8014 26.7187 26.5156 26.7187 27.2461C26.7141 28.2285 26.3205 29.1691 25.6241 29.862C24.9277 30.555 23.9851 30.9439 23.0027 30.9437Z" stroke="black" stroke-width="2" stroke-linejoin="round"/>
<path id="Vector_2" d="M14.0625 16.875L22.5 5.625L30.9375 16.875" stroke="black" stroke-width="2" stroke-linejoin="round"/>
</g>
</svg>
